# File created by Blade
# Date/Time:  Wed Sep 24 20:21:23 2014
# Frame Rate: 120.000 fps
#------------------------------------------------------
:FULLY-SPECIFIED
:DEGREES
799
root -7.617756 33.277055 -4.309972 10.486583 22.126312 36.330520
Spine 4.996610 -21.170945 -40.727507
Head 2.910531 -5.589632 13.101880
LeftShoulder 7.449706 -24.246095 28.428097
LeftArm 136.229119 -69.970811 -153.662535
LeftForeArm -17.736156 -0.000000 44.054270
LeftHand -14.653729 -0.000000 -30.655823
LeftHandThumb1 -26.253704 0.000000 33.147579
RightShoulder -15.358358 21.062550 -29.592825
RightArm -10.136008 5.139710 18.237427
RightForeArm -22.328944 -0.000000 9.239295
RightHand -7.266082 -0.000000 11.395068
RightHandThumb1 -24.326973 -0.000000 -32.862282
LeftUpLeg -152.461287 35.792721 -33.286868
LeftLeg 6.154434 -0.000000 -0.000000
LeftFoot 39.248274 28.640771 -10.640494
LeftToeBase 13.100274 -0.000000 -0.000000
RightUpLeg -7.832066 -5.771873 -26.154719
RightLeg 34.513391 -0.000000 -0.000000
RightFoot -21.938326 -31.378032 -1.596079
RightToeBase -0.589484 -0.000000 0.000000
800
root -7.618345 33.273314 -4.324046 10.537882 22.166366 36.289665
Spine 5.047497 -21.104734 -40.656778
Head 2.678441 -5.658961 13.097028
LeftShoulder 7.496220 -24.153582 28.409168
LeftArm 136.449700 -70.004834 -154.038554
LeftForeArm -17.699301 -0.000000 43.841683
LeftHand -14.564384 -0.000000 -30.671665
LeftHandThumb1 -26.253704 0.000000 33.147579
RightShoulder -15.376719 21.118576 -29.600074
RightArm -10.179182 5.047881 18.224426
RightForeArm -22.323037 -0.000000 9.247180
RightHand -7.266831 0.000000 11.596708
RightHandThumb1 -24.326973 -0.000000 -32.862282
LeftUpLeg -152.493250 35.790830 -33.230936
LeftLeg 6.616220 -0.000000 -0.000000
LeftFoot 39.371942 28.687979 -10.546515
LeftToeBase 12.693660 -0.000000 -0.000000
RightUpLeg -7.902066 -5.830933 -26.111117
RightLeg 34.517821 -0.000000 -0.000000
RightFoot -21.940103 -31.372840 -1.645577
RightToeBase -0.541830 -0.000000 0.000000
801
root -7.618583 33.270275 -4.336723 10.570916 22.196977 36.251160
Spine 5.126312 -21.015445 -40.586765
Head 2.373847 -5.732827 13.055205
LeftShoulder 7.535761 -24.135683 28.377226
LeftArm 136.535847 -70.137532 -154.261494
LeftForeArm -17.934949 -0.000000 43.545606
LeftHand -14.579871 -0.000000 -30.507714
LeftHandThumb1 -26.253704 0.000000 33.147579
RightShoulder -15.392293 21.097137 -29.610426
RightArm -10.191959 5.150208 18.214744
RightForeArm -22.486232 -0.000000 9.189146
RightHand -7.243740 -0.000000 11.369244
RightHandThumb1 -24.326973 -0.000000 -32.862282
LeftUpLeg -152.562106 35.729014 -33.226217
LeftLeg 7.147687 -0.000000 -0.000000
LeftFoot 39.679687 28.465340 -10.190752
LeftToeBase 11.763573 -0.000000 -0.000000
RightUpLeg -7.945636 -5.766573 -26.071018
RightLeg 34.532793 -0.000000 -0.000000
RightFoot -21.805195 -31.506448 -1.866191
RightToeBase -0.603574 -0.000000 0.000000
802
root -7.620471 33.268441 -4.350015 10.596934 22.239746 36.212816
Spine 5.229064 -20.919040 -40.533384
Head 2.070168 -5.780932 13.089697
LeftShoulder 7.601248 -24.101355 28.347561
LeftArm 136.727718 -70.249090 -154.595303
LeftForeArm -18.097031 -0.000000 43.220750
LeftHand -14.521341 0.000000 -30.537970
LeftHandThumb1 -26.253704 0.000000 33.147579
RightShoulder -15.447290 21.068148 -29.617714
RightArm -10.193786 5.098252 18.253703
RightForeArm -22.428026 -0.000000 9.207411
RightHand -7.244809 -0.000000 11.550346
RightHandThumb1 -24.326973 -0.000000 -32.862282
LeftUpLeg -152.666121 35.600717 -33.261419
LeftLeg 7.734792 -0.000000 -0.000000
LeftFoot 39.796647 28.434157 -10.120805
LeftToeBase 11.452042 -0.000000 -0.000000
RightUpLeg -7.989701 -5.838477 -26.019157
RightLeg 34.503067 -0.000000 -0.000000
RightFoot -21.857666 -31.477395 -1.771408
RightToeBase -0.520058 -0.000000 0.000000
803
root -7.622205 33.265619 -4.365454 10.642416 22.286387 36.176375
Spine 5.324721 -20.843636 -40.466550
Head 1.731387 -5.817381 13.116488
LeftShoulder 7.648846 -23.989475 28.313720
LeftArm 136.933428 -70.311091 -154.933089
LeftForeArm -18.437997 -0.000000 42.900550
LeftHand -14.523227 -0.000000 -30.359138
LeftHandThumb1 -26.253704 0.000000 33.147579
RightShoulder -15.502909 21.076948 -29.630027
RightArm -10.213204 5.010734 18.270812
RightForeArm -22.338244 0.000000 9.238282
RightHand -7.248885 0.000000 11.548687
RightHandThumb1 -24.326973 -0.000000 -32.862282
LeftUpLeg -152.718361 35.546268 -33.242960
LeftLeg 8.301467 -0.000000 -0.000000
LeftFoot 39.622146 28.679960 -10.425357
LeftToeBase 11.918943 -0.000000 -0.000000
RightUpLeg -8.051965 -5.838496 -25.965695
RightLeg 34.501851 -0.000000 -0.000000
RightFoot -21.829207 -31.556809 -1.824109
RightToeBase -0.444128 -0.000000 0.000000
804
root -7.624503 33.264687 -4.378998 10.679700 22.335307 36.151638
Spine 5.431764 -20.759051 -40.430732
Head 1.412047 -5.828168 13.208438
LeftShoulder 7.710209 -23.877790 28.292027
LeftArm 137.163685 -70.421627 -155.293054
LeftForeArm -18.798919 0.000000 42.522113
LeftHand -14.521553 -0.000000 -30.361576
LeftHandThumb1 -26.253704 0.000000 33.147579
RightShoulder -15.540271 21.083607 -29.641515
RightArm -10.261123 5.006492 18.295841
RightForeArm -22.365385 -0.000000 9.269801
RightHand -7.282688 -0.000000 11.335737
RightHandThumb1 -24.326973 -0.000000 -32.862282
LeftUpLeg -152.779628 35.444176 -33.270299
LeftLeg 8.888164 -0.000000 -0.000000
LeftFoot 39.659119 28.733740 -10.459765
LeftToeBase 11.696970 -0.000000 -0.000000
RightUpLeg -8.091112 -5.842266 -25.925581
RightLeg 34.489842 -0.000000 -0.000000
RightFoot -21.758378 -31.634867 -1.920050
RightToeBase -0.444111 -0.000000 0.000000
805
root -7.626146 33.264807 -4.394935 10.745680 22.390156 36.141927
Spine 5.515388 -20.722707 -40.394392
Head 1.112869 -5.812249 13.271232
LeftShoulder 7.749748 -23.676187 28.250643
LeftArm 137.324322 -70.528941 -155.545541
LeftForeArm -19.209607 0.000000 42.112835
LeftHand -14.517071 -0.000000 -30.207522
LeftHandThumb1 -26.253704 0.000000 33.147579
RightShoulder -15.537179 21.040750 -29.583984
RightArm -10.254043 5.040576 18.262714
RightForeArm -22.292228 -0.000000 9.253239
RightHand -7.304429 0.000000 11.272090
RightHandThumb1 -24.326973 -0.000000 -32.862282
LeftUpLeg -152.796625 35.401484 -33.256320
LeftLeg 9.478094 -0.000000 -0.000000
LeftFoot 39.534820 28.905176 -10.623663
LeftToeBase 11.873337 -0.000000 -0.000000
RightUpLeg -8.145245 -5.858544 -25.898659
RightLeg 34.469648 -0.000000 -0.000000
RightFoot -21.712586 -31.698130 -1.970721
RightToeBase -0.413493 -0.000000 0.000000
806
root -7.628153 33.264640 -4.415322 10.841984 22.463239 36.139860
Spine 5.595980 -20.711634 -40.358497
Head 0.797108 -5.802256 13.350252
LeftShoulder 7.809319 -23.588196 28.210555
LeftArm 137.429693 -70.690198 -155.804868
LeftForeArm -19.591551 -0.000000 41.717769
LeftHand -14.483700 -0.000000 -30.065909
LeftHandThumb1 -26.253704 0.000000 33.147579
RightShoulder -15.580957 21.019526 -29.606202
RightArm -10.253247 5.131861 18.304174
RightForeArm -22.278641 -0.000000 9.268198
RightHand -7.243466 -0.000000 11.539160
RightHandThumb1 -24.326973 -0.000000 -32.862282
LeftUpLeg -152.845089 35.261847 -33.290661
LeftLeg 10.071729 -0.000000 -0.000000
LeftFoot 39.461654 29.135296 -10.743192
LeftToeBase 12.294887 -0.000000 -0.000000
RightUpLeg -8.225945 -5.893646 -25.875323
RightLeg 34.459615 -0.000000 -0.000000
RightFoot -21.674834 -31.767812 -2.001480
RightToeBase -0.354780 -0.000000 0.000000
807
root -7.630447 33.265755 -4.428880 10.904504 22.499517 36.127401
Spine 5.661693 -20.656192 -40.317925
Head 0.501132 -5.789679 13.391168
LeftShoulder 7.843034 -23.481765 28.151005
LeftArm 137.360808 -70.888152 -155.865021
LeftForeArm -19.957265 -0.000000 41.282416
LeftHand -14.488589 0.000000 -29.925396
LeftHandThumb1 -26.253704 0.000000 33.147579
RightShoulder -15.623985 21.030230 -29.606166
RightArm -10.241035 5.019701 18.327585
RightForeArm -22.146000 -0.000000 9.264373
RightHand -7.234710 0.000000 11.508614
RightHandThumb1 -24.326973 -0.000000 -32.862282
LeftUpLeg -152.979840 35.067757 -33.415846
LeftLeg 10.742938 -0.000000 -0.000000
LeftFoot 39.506321 29.225842 -10.817493
LeftToeBase 11.656294 -0.000000 -0.000000
RightUpLeg -8.272196 -5.900884 -25.848057
RightLeg 34.414261 -0.000000 -0.000000
RightFoot -21.625740 -31.820457 -2.069489
RightToeBase -0.326476 -0.000000 0.000000
808
root -7.633416 33.268155 -4.440750 10.958657 22.525466 36.118257
Spine 5.728706 -20.585701 -40.288946
Head 0.197634 -5.763336 13.441509
LeftShoulder 7.867481 -23.329312 28.093575
LeftArm 137.294236 -71.065575 -155.936332
LeftForeArm -20.274792 -0.000000 40.823765
LeftHand -14.449250 0.000000 -29.836384
LeftHandThumb1 -26.253704 0.000000 33.147579
RightShoulder -15.660127 21.111879 -29.602435
RightArm -10.254021 5.038658 18.302378
RightForeArm -22.245930 0.000000 9.227712
RightHand -7.310104 0.000000 11.295935
RightHandThumb1 -24.326973 -0.000000 -32.862282
LeftUpLeg -153.150478 34.827778 -33.590264
LeftLeg 11.486595 -0.000000 -0.000000
LeftFoot 39.393780 29.247199 -10.976303
LeftToeBase 11.604106 -0.000000 -0.000000
RightUpLeg -8.302257 -5.862354 -25.828803
RightLeg 34.360165 -0.000000 -0.000000
RightFoot -21.524704 -31.899398 -2.257017
RightToeBase -0.211429 -0.000000 0.000000
809
root -7.635952 33.270038 -4.454020 11.006102 22.565818 36.083755
Spine 5.809704 -20.526428 -40.221340
Head -0.150059 -5.738972 13.472550
LeftShoulder 7.873788 -23.114091 28.041331
LeftArm 137.214208 -71.226694 -156.014584
LeftForeArm -20.565728 0.000000 40.345163
LeftHand -14.341712 -0.000000 -29.874349
LeftHandThumb1 -26.253704 0.000000 33.147579
RightShoulder -15.662827 21.041926 -29.573777
RightArm -10.248940 5.027632 18.320380
RightForeArm -22.101668 -0.000000 9.219331
RightHand -7.201302 -0.000000 11.527826
RightHandThumb1 -24.326973 -0.000000 -32.862282
LeftUpLeg -153.289537 34.636698 -33.690590
LeftLeg 12.276411 -0.000000 -0.000000
LeftFoot 39.187143 29.367110 -11.295086
LeftToeBase 11.564611 -0.000000 -0.000000
RightUpLeg -8.348406 -5.909246 -25.776800
RightLeg 34.307402 -0.000000 -0.000000
RightFoot -21.461795 -31.957416 -2.266751
RightToeBase -0.274741 -0.000000 0.000000
810
root -7.640203 33.272181 -4.469560 11.078273 22.610318 36.041763
Spine 5.860127 -20.540662 -40.122605
Head -0.450737 -5.639748 13.459104
LeftShoulder 7.815199 -22.846958 27.989222
LeftArm 137.096255 -71.364830 -156.102472
LeftForeArm -20.877739 0.000000 39.877850
LeftHand -14.343941 -0.000000 -29.813525
LeftHandThumb1 -26.253704 0.000000 33.147579
RightShoulder -15.655233 21.117541 -29.543830
RightArm -10.244453 5.015319 18.282479
RightForeArm -22.104066 -0.000000 9.225050
RightHand -7.158089 -0.000000 11.517209
RightHandThumb1 -24.326973 -0.000000 -32.862282
LeftUpLeg -153.488008 34.405119 -33.811702
LeftLeg 13.179235 -0.000000 -0.000000
LeftFoot 39.099569 29.472648 -11.606726
LeftToeBase 11.530113 -0.000000 -0.000000
RightUpLeg -8.411602 -5.829478 -25.699231
RightLeg 34.242229 -0.000000 -0.000000
RightFoot -21.377215 -32.118279 -2.302563
RightToeBase -0.186515 -0.000000 0.000000
